<?xml version="1.0" encoding="iso-8859-1"?>
<!-- Generator: Adobe Illustrator 19.0.0, SVG Export Plug-In . SVG Version: 6.00 Build 0)  -->
<svg version="1.1" id="Capa_1" xmlns="http://www.w3.org/2000/svg" xmlns:xlink="http://www.w3.org/1999/xlink" x="0px" y="0px"
	 viewBox="0 0 512 512" style="enable-background:new 0 0 512 512;" xml:space="preserve">
<path style="fill:#FFB4A9;" d="M339.726,203.006h-15.223c0-4.197-3.414-7.611-7.612-7.611H195.109v-15.223h121.783
	C329.482,180.171,339.726,190.414,339.726,203.006z"/>
<rect x="393.007" y="137.007" style="fill:#9DB55F;" width="15.223" height="86.264"/>
<path style="fill:#FF8646;" d="M461.51,431.717v72.672c0,4.204,3.407,7.611,7.612,7.611s7.611-3.408,7.611-7.611v-72.672H461.51z"/>
<path style="fill:#FFA754;" d="M324.503,431.717v72.672c0,4.204,3.407,7.611,7.611,7.611c4.205,0,7.612-3.408,7.612-7.611v-72.672
	H324.503z"/>
<path style="fill:#FF6753;" d="M157.052,289.237v199.515l-25.24,8.413c-3.988,1.329-6.143,5.64-4.815,9.628
	c1.329,3.988,5.642,6.144,9.628,4.815l30.444-10.149c3.108-1.036,5.204-3.945,5.204-7.221V289.237H157.052z"/>
<path style="fill:#FF4128;" d="M233.167,289.237v199.515l25.24,8.413c3.988,1.329,6.143,5.64,4.815,9.628
	c-1.329,3.988-5.642,6.144-9.628,4.815l-30.444-10.149c-3.108-1.036-5.204-3.945-5.204-7.221V289.237H233.167z"/>
<path style="fill:#353535;" d="M301.669,129.428c-4.205,0-7.611,3.408-7.611,7.611v81.189h15.223v-81.189
	C309.28,132.836,305.874,129.428,301.669,129.428z"/>
<polygon style="fill:#A8E5FF;" points="88.547,167.453 63.175,213.127 88.547,243.577 118.993,243.577 118.993,167.453 "/>
<rect x="27.655" y="167.453" style="fill:#DBF4FF;" width="60.892" height="76.125"/>
<path style="fill:#FFD9D4;" d="M42.878,205.51H12.432c-4.205,0-7.611-3.408-7.611-7.611c0-4.204,3.407-7.611,7.611-7.611h30.446
	c4.205,0,7.611,3.408,7.611,7.611C50.49,202.102,47.083,205.51,42.878,205.51z"/>
<path style="fill:#B3B3B3;" d="M103.77,175.064c-4.205,0-7.611-3.408-7.611-7.611V152.23c0-4.204,3.407-7.611,7.611-7.611
	s7.611,3.408,7.611,7.611v15.223C111.382,171.657,107.975,175.064,103.77,175.064z"/>
<g>
	<path style="fill:#CCCCCC;" d="M42.878,175.064c-4.205,0-7.611-3.408-7.611-7.611V152.23c0-4.204,3.407-7.611,7.611-7.611
		s7.611,3.408,7.611,7.611v15.223C50.49,171.657,47.083,175.064,42.878,175.064z"/>
	<path style="fill:#CCCCCC;" d="M73.324,175.064c-4.205,0-7.612-3.408-7.612-7.611V152.23c0-4.204,3.407-7.611,7.612-7.611
		c4.205,0,7.611,3.408,7.611,7.611v15.223C80.936,171.657,77.529,175.064,73.324,175.064z"/>
</g>
<path style="fill:#FFB4A9;" d="M220.48,167.453h-30.446v55.849l50.743-13.531V187.75C240.777,176.54,231.69,167.453,220.48,167.453z
	"/>
<path style="fill:#FFD9D4;" d="M190.034,167.453h-20.297c-11.21,0-20.297,9.087-20.297,20.297v22.021l45.669,20.297l15.223-6.766
	V187.75C210.331,176.54,201.244,167.453,190.034,167.453z"/>
<path style="fill:#FF8D7E;" d="M240.778,258.791l-0.001-49.02c-5.05-7.177-13.392-11.872-22.834-11.872
	c-2.641,0-5.191,0.38-7.611,1.065l-20.297,75.05l35.521,76.115h30.446v-51.083C256.001,283.608,250.245,269.523,240.778,258.791z"/>
<path style="fill:#FFB4A9;" d="M210.332,258.791l-0.001-59.827c-6.235,1.767-11.586,5.637-15.223,10.806
	c-5.05-7.177-13.391-11.872-22.834-11.872c-9.442,0-17.785,4.694-22.834,11.872v49.021c-9.468,10.733-15.222,24.818-15.222,40.255
	v51.083h91.338v-51.083C225.555,283.609,219.8,269.524,210.332,258.791z"/>
<path style="fill:#C96F3D;" d="M205.258,0c-3.776,0-7.271,1.187-10.149,3.197C192.231,1.187,188.737,0,184.96,0
	c-9.809,0-17.76,7.951-17.76,17.76c0,15.414,12.495,27.909,27.909,27.909s27.909-12.495,27.909-27.909
	C223.018,7.951,215.066,0,205.258,0z"/>
<path style="fill:#FFB4A9;" d="M223.813,55.826h-28.703v81.181c25.222,0,45.669-20.447,45.669-45.669
	C240.778,76.993,234.158,64.198,223.813,55.826z"/>
<path style="fill:#FFD9D4;" d="M209.013,72.752l-42.608-16.926c-10.346,8.373-16.966,21.166-16.966,35.512
	c0,25.222,20.447,45.669,45.669,45.669c8.407,0,15.223-20.447,15.223-45.669C210.332,84.717,209.858,78.431,209.013,72.752z"/>
<path style="fill:#B25B3D;" d="M195.109,45.669v27.083h13.905c6.854-3.525,12.199-9.576,14.8-16.926
	C215.969,49.478,205.985,45.669,195.109,45.669z"/>
<path style="fill:#C96F3D;" d="M195.109,45.669c-10.877,0-20.86,3.809-28.703,10.157c4.181,11.82,15.45,20.289,28.703,20.289
	c5.011,0,9.736-1.218,13.905-3.363C206.64,56.796,201.309,45.669,195.109,45.669z"/>
<rect x="385.395" y="202.973" style="fill:#DBF4FF;" width="30.446" height="44.674"/>
<path style="fill:#7DD9FF;" d="M385.395,232.428h30.446c9.097,5.265,15.223,15.095,15.223,26.363
	c0,16.815-13.632,30.446-30.446,30.446s-30.446-13.631-30.446-30.446C370.172,247.523,376.298,237.693,385.395,232.428z"/>
<path style="fill:#FF4128;" d="M380.321,111.635v25.372c0,11.21,9.087,20.297,20.297,20.297s20.297-9.087,20.297-20.297v-25.372
	c-7.799,0-14.91,2.936-20.297,7.759C395.232,114.571,388.12,111.635,380.321,111.635z"/>
<path style="fill:#A8E5FF;" d="M499.568,289.237h-30.446l-20.297,81.389l20.297,91.538c7.944-2.052,17.499-3.443,30.446-3.443
	V289.237z"/>
<path style="fill:#DBF4FF;" d="M301.669,289.237V458.72c49.475,0,49.475,20.297,98.949,20.297c36.528,0,46.09-11.063,68.503-16.854
	V289.237H301.669z"/>
<polygon style="fill:#2DADE3;" points="414.996,319.683 442.905,375.501 470.814,319.683 "/>
<polygon style="fill:#FF6753;" points="330.423,319.683 358.333,375.501 386.241,319.683 "/>
<path style="fill:#49C9FF;" d="M499.568,327.294H301.669c-4.205,0-7.611-3.408-7.611-7.612s3.407-7.611,7.611-7.611h197.899
	c4.205,0,7.612,3.408,7.612,7.611S503.772,327.294,499.568,327.294z"/>
<path style="fill:#FFB4A9;" d="M316.892,225.84h-15.223c-4.205,0-7.611-3.408-7.611-7.611s3.407-7.611,7.611-7.611h15.223
	c4.197,0,7.612-3.414,7.612-7.611c0-4.204,3.407-7.611,7.611-7.611c4.205,0,7.612,3.408,7.612,7.611
	C339.726,215.597,329.482,225.84,316.892,225.84z"/>
<g>
</g>
<g>
</g>
<g>
</g>
<g>
</g>
<g>
</g>
<g>
</g>
<g>
</g>
<g>
</g>
<g>
</g>
<g>
</g>
<g>
</g>
<g>
</g>
<g>
</g>
<g>
</g>
<g>
</g>
</svg>
